<?xml version="1.0" standalone="no"?>
<!DOCTYPE svg PUBLIC "-//W3C//DTD SVG 20010904//EN"
 "http://www.w3.org/TR/2001/REC-SVG-20010904/DTD/svg10.dtd">
<svg version="1.0" xmlns="http://www.w3.org/2000/svg"
 width="1011.000000pt" height="794.000000pt" viewBox="0 0 1011.000000 794.000000"
 preserveAspectRatio="xMidYMid meet">

<g transform="translate(0.000000,794.000000) scale(0.100000,-0.100000)"
fill="#000000" stroke="none">
<path d="M5698 7633 c200 -2 524 -2 720 0 196 1 33 2 -363 2 -396 0 -557 -1
-357 -2z"/>
<path d="M6959 7611 c-29 -29 -29 -31 -29 -141 0 -110 0 -112 29 -141 l29 -29
717 0 717 0 29 29 c29 29 29 31 29 141 0 110 0 112 -29 141 l-29 29 -717 0
-717 0 -29 -29z m431 -136 c0 -33 -4 -45 -15 -45 -11 0 -15 12 -15 45 0 33 4
45 15 45 11 0 15 -12 15 -45z m54 23 l16 -22 0 22 c0 13 6 22 15 22 11 0 15
-12 15 -45 0 -51 -18 -60 -44 -23 l-16 22 0 -22 c0 -13 -6 -22 -15 -22 -11 0
-15 12 -15 45 0 51 18 60 44 23z m144 4 c3 -9 -3 -13 -14 -12 -33 4 -44 0 -44
-14 0 -23 22 -31 32 -12 13 24 28 20 28 -8 0 -29 -28 -39 -62 -22 -29 15 -35
42 -12 67 20 22 65 22 72 1z m93 2 c10 -12 10 -20 2 -34 -9 -13 -9 -20 0 -29
16 -16 -15 -15 -32 2 -11 10 -14 10 -18 0 -3 -7 -11 -13 -19 -13 -10 0 -14 12
-14 38 0 21 3 42 7 45 12 13 61 7 74 -9z m94 6 c5 -8 11 -7 20 0 16 13 56 10
55 -5 -1 -5 -10 -9 -20 -7 -28 5 -25 -7 5 -18 29 -11 33 -36 8 -48 -10 -4 -46
-6 -80 -4 l-63 4 0 44 c0 43 0 44 34 44 19 0 38 -5 41 -10z m168 -25 c9 -20
17 -40 17 -45 0 -15 -28 -12 -33 3 -3 9 -10 9 -30 -2 -15 -8 -29 -12 -31 -10
-8 9 34 89 47 89 7 0 21 -16 30 -35z m96 22 c13 -17 10 -77 -4 -77 -6 0 -16 5
-23 12 -9 9 -12 9 -12 0 0 -7 -7 -12 -15 -12 -11 0 -15 12 -15 45 0 43 1 45
29 45 16 0 33 -6 40 -13z"/>
<path d="M7630 7486 c0 -9 7 -16 16 -16 9 0 14 5 12 12 -6 18 -28 21 -28 4z"/>
<path d="M7730 7490 c0 -5 9 -10 20 -10 27 0 25 -18 -2 -23 -13 -2 2 -5 32 -5
43 -1 50 1 32 8 -12 5 -25 16 -28 25 -7 16 -54 21 -54 5z"/>
<path d="M8000 7485 c0 -8 5 -15 10 -15 6 0 10 7 10 15 0 8 -4 15 -10 15 -5 0
-10 -7 -10 -15z"/>
<path d="M310 7490 l0 -130 75 0 c43 0 75 4 75 10 0 6 -28 10 -65 10 l-65 0 0
120 c0 73 -4 120 -10 120 -6 0 -10 -50 -10 -130z"/>
<path d="M1253 7495 c23 -69 46 -126 51 -127 5 -2 29 55 52 125 24 71 38 127
33 125 -6 -2 -27 -54 -47 -117 l-37 -113 -38 116 c-21 64 -42 116 -47 116 -5
0 10 -56 33 -125z"/>
<path d="M1620 7502 c0 -120 6 -142 40 -142 13 1 12 3 -2 14 -15 11 -18 30
-18 130 0 71 -4 116 -10 116 -6 0 -10 -46 -10 -118z"/>
<path d="M1730 7570 l0 -50 50 0 50 0 0 50 0 50 -50 0 -50 0 0 -50z"/>
<path d="M8776 7604 c-17 -16 -12 -40 9 -48 8 -3 21 2 29 10 8 8 13 21 10 29
-8 21 -32 26 -48 9z"/>
<path d="M9154 7611 c-26 -12 -62 -57 -70 -88 -12 -47 34 -114 87 -126 14 -4
41 -2 60 3 31 9 36 7 71 -27 30 -29 41 -34 50 -25 9 9 4 21 -26 51 -37 37 -38
41 -27 74 14 40 -1 89 -36 120 -24 21 -80 30 -109 18z m107 -40 c58 -59 26
-147 -58 -158 -37 -5 -45 -2 -73 25 -41 42 -42 92 -1 133 22 21 39 29 66 29
27 0 44 -8 66 -29z"/>
<path d="M5284 7470 c0 -63 1 -89 3 -57 2 31 2 83 0 115 -2 31 -3 5 -3 -58z"/>
<path d="M6824 7470 c0 -63 1 -89 3 -57 2 31 2 83 0 115 -2 31 -3 5 -3 -58z"/>
<path d="M9600 7560 c0 -6 58 -10 155 -10 97 0 155 4 155 10 0 6 -58 10 -155
10 -97 0 -155 -4 -155 -10z"/>
<path d="M513 7540 c-32 -13 -28 -17 12 -12 41 5 65 -11 65 -44 0 -22 -4 -24
-43 -24 -49 0 -67 -13 -67 -50 0 -14 5 -31 12 -38 14 -14 74 -16 82 -3 3 4
-11 8 -30 7 -25 -1 -40 5 -48 17 -18 28 4 52 54 55 l43 3 -6 -34 c-3 -18 -1
-40 4 -48 5 -9 9 18 9 73 0 76 -2 89 -19 98 -23 12 -38 12 -68 0z"/>
<path d="M678 7539 c-10 -5 -18 -15 -18 -21 0 -7 5 -6 15 2 8 7 26 10 40 8 14
-3 25 -1 25 3 0 5 -4 9 -9 9 -5 0 -15 2 -23 5 -7 2 -21 0 -30 -6z"/>
<path d="M793 7535 c-16 -11 -23 -12 -26 -2 -3 6 -5 -31 -5 -83 l1 -95 6 71
c7 80 23 108 58 101 13 -2 26 0 29 4 3 5 1 9 -5 9 -5 0 -15 2 -23 5 -7 3 -23
-2 -35 -10z"/>
<path d="M903 7540 c-33 -13 -29 -16 25 -16 46 1 47 0 50 -31 3 -33 3 -33 -40
-33 -50 0 -68 -13 -68 -50 0 -14 5 -31 12 -38 15 -15 75 -16 84 -1 4 8 9 7 15
-2 5 -9 9 21 9 73 0 76 -2 89 -19 98 -23 12 -38 12 -68 0z m75 -122 c-2 -25
-9 -35 -31 -42 -32 -12 -60 1 -65 28 -6 28 18 46 60 46 38 0 39 -1 36 -32z"/>
<path d="M1126 7535 c-14 -8 -26 -10 -26 -4 0 5 -4 9 -10 9 -6 0 -10 -37 -10
-90 0 -53 4 -90 10 -90 6 0 10 32 10 75 0 63 3 76 19 85 54 28 75 6 82 -87 l6
-78 1 81 c1 55 -2 85 -10 91 -25 19 -46 21 -72 8z"/>
<path d="M1493 7540 c-33 -13 -29 -16 25 -16 46 1 47 0 50 -31 3 -33 3 -33
-40 -33 -50 0 -68 -13 -68 -50 0 -34 17 -50 55 -50 17 0 36 5 43 12 9 9 12 9
12 0 0 -7 5 -12 10 -12 6 0 10 33 10 79 0 71 -2 82 -22 95 -25 18 -42 19 -75
6z m75 -122 c-2 -25 -9 -35 -31 -42 -32 -12 -60 1 -66 29 -4 25 25 45 67 45
32 0 33 -2 30 -32z"/>
<path d="M8685 7541 c-3 -6 2 -14 12 -18 80 -28 83 -30 76 -65 -3 -18 -14 -55
-24 -83 -21 -54 -11 -81 15 -44 9 13 16 29 16 36 0 29 21 20 40 -18 34 -66 43
-33 14 50 -14 40 -23 79 -20 86 3 8 23 19 45 26 51 15 58 45 9 32 -42 -10
-104 -10 -145 0 -20 5 -34 4 -38 -2z"/>
<path d="M642 7450 l1 -95 7 74 c5 41 4 84 0 95 -6 14 -8 -13 -8 -74z"/>
<path d="M1034 7450 c0 -52 1 -74 3 -47 2 26 2 68 0 95 -2 26 -3 4 -3 -48z"/>
<path d="M1424 7450 c0 -52 1 -74 3 -47 2 26 2 68 0 95 -2 26 -3 4 -3 -48z"/>
<path d="M5533 7470 c0 -25 2 -35 4 -22 3 15 11 22 28 22 17 0 25 -7 28 -22 2
-13 4 -3 4 22 1 25 -1 37 -4 28 -3 -11 -14 -18 -28 -18 -14 0 -25 7 -28 18 -3
9 -5 -3 -4 -28z"/>
<path d="M5748 7503 c27 -5 28 -15 2 -38 -28 -26 -25 -35 13 -34 l32 1 -29 7
c-27 5 -28 7 -12 20 9 8 22 23 27 33 9 16 6 18 -23 17 -24 -1 -27 -3 -10 -6z"/>
<path d="M5822 7503 c11 -3 18 -17 21 -41 l4 -37 1 37 c1 25 7 38 20 41 9 3
-1 5 -23 5 -22 0 -32 -2 -23 -5z"/>
<path d="M5900 7470 c0 -39 1 -40 33 -39 30 2 30 2 5 6 -34 5 -37 30 -5 36
l22 4 -22 2 c-13 0 -23 5 -23 10 0 5 10 12 23 14 19 4 18 4 -5 6 -26 1 -28 -2
-28 -39z"/>
<path d="M6036 7502 c-3 -5 8 -6 25 -4 16 2 29 6 29 8 0 8 -49 4 -54 -4z"/>
<path d="M6122 7473 c-2 -41 -1 -43 26 -42 22 1 23 2 5 6 -17 3 -23 13 -26 41
l-4 37 -1 -42z"/>
<path d="M6203 7470 c0 -25 2 -35 4 -22 2 12 2 32 0 45 -2 12 -4 2 -4 -23z"/>
<path d="M6250 7470 c0 -37 2 -40 28 -39 23 2 24 2 5 6 -13 2 -23 11 -23 18 0
7 10 16 23 18 l22 4 -22 2 c-13 0 -23 5 -23 10 0 5 10 12 23 14 19 4 18 4 -5
6 -26 1 -28 -2 -28 -39z"/>
<path d="M6340 7503 c0 -6 14 -25 30 -41 l30 -30 -1 41 c-1 38 -2 39 -8 12
l-6 -29 -22 29 c-12 17 -23 25 -23 18z"/>
<path d="M6443 7503 c9 -2 25 -2 35 0 9 3 1 5 -18 5 -19 0 -27 -2 -17 -5z"/>
<path d="M6520 7470 c0 -39 1 -40 33 -39 30 2 30 2 5 6 -34 5 -37 30 -5 36
l22 4 -22 2 c-13 0 -23 5 -23 10 0 5 10 12 23 14 19 4 18 4 -5 6 -26 1 -28 -2
-28 -39z"/>
<path d="M9600 7480 c0 -6 58 -10 155 -10 97 0 155 4 155 10 0 6 -58 10 -155
10 -97 0 -155 -4 -155 -10z"/>
<path d="M5635 7452 c-3 -8 -3 -17 0 -20 3 -3 5 0 5 6 0 6 15 12 33 14 l32 3
-32 6 c-23 4 -34 1 -38 -9z"/>
<path d="M6048 7437 c14 -6 26 -7 32 -1 5 5 -4 9 -23 10 -30 1 -30 1 -9 -9z"/>
<path d="M9600 7410 c0 -6 58 -10 155 -10 97 0 155 4 155 10 0 6 -58 10 -155
10 -97 0 -155 -4 -155 -10z"/>
<path d="M5698 7303 c200 -2 524 -2 720 0 196 1 33 2 -363 2 -396 0 -557 -1
-357 -2z"/>
<path d="M0 3940 l0 -3060 3015 0 3015 0 0 140 0 140 2040 -2 2040 -3 0 2923
0 2922 -5055 0 -5055 0 0 -3060z m8473 1702 c12 -13 18 -44 21 -113 5 -108 15
-137 108 -319 36 -69 72 -143 81 -165 9 -22 14 -29 11 -15 -10 42 -69 189
-118 295 -34 75 -46 112 -46 148 0 93 50 138 114 103 85 -46 149 -215 181
-479 14 -120 15 -143 2 -213 -14 -77 -13 -149 3 -159 5 -3 18 7 29 21 19 24
21 40 21 178 0 131 -4 168 -29 278 -17 69 -41 149 -56 177 -48 95 -41 181 12
153 86 -47 138 -200 151 -442 11 -216 3 -307 -31 -359 -30 -45 -33 -63 -14
-79 22 -19 55 14 72 71 9 29 20 102 26 162 5 61 14 130 20 155 14 58 68 190
79 190 11 0 30 -114 30 -176 l0 -49 19 31 c28 46 41 51 63 24 25 -31 23 -88
-4 -117 -24 -26 -25 -9 13 -241 11 -70 11 -74 -15 -123 -14 -28 -26 -60 -26
-70 0 -18 2 -18 28 -5 30 16 78 61 104 97 13 20 20 22 35 13 15 -9 18 -23 17
-75 0 -35 -2 -82 -5 -104 -3 -31 0 -40 13 -43 27 -5 47 39 61 133 15 102 34
127 67 87 38 -46 37 -91 -5 -225 -13 -43 -13 -48 2 -54 34 -13 43 24 43 170 0
126 2 143 22 179 23 41 62 68 97 68 33 0 81 -48 81 -81 0 -17 -31 -91 -72
-171 -76 -151 -91 -213 -53 -213 24 0 65 59 65 95 0 15 8 34 18 43 16 15 20
15 40 1 28 -19 28 -57 1 -119 -11 -25 -18 -49 -15 -53 4 -3 25 13 49 35 86 84
149 112 177 78 27 -33 -19 -167 -61 -178 -22 -6 -22 -7 -4 -27 10 -11 16 -23
13 -26 -3 -3 5 -16 19 -30 27 -27 22 -55 -6 -30 -16 15 -20 13 -50 -29 -35
-49 -58 -56 -85 -26 -31 34 -17 55 70 107 16 10 17 13 5 27 -17 22 -9 42 25
59 46 22 75 138 35 138 -19 0 -121 -71 -155 -109 -24 -27 -66 -28 -66 -3 0 10
12 47 26 82 23 57 24 64 10 79 -15 14 -16 13 -16 -9 -1 -38 -35 -106 -64 -125
-48 -31 -93 7 -81 68 4 18 38 94 76 169 77 151 85 191 44 210 -36 16 -75 0
-99 -42 -19 -31 -21 -50 -19 -164 3 -146 -9 -191 -51 -202 -57 -14 -70 33 -36
131 23 68 26 123 6 150 -13 18 -15 17 -20 -20 -23 -152 -41 -197 -85 -203 -50
-8 -62 37 -39 137 8 35 8 57 1 73 -10 23 -10 23 -25 -7 -16 -29 -84 -85 -122
-99 -24 -8 -46 10 -46 41 0 13 12 47 27 76 l26 52 -23 142 -24 143 22 29 c22
30 31 91 13 91 -25 0 -43 -90 -52 -255 -9 -182 -18 -232 -48 -259 -25 -23 -49
-18 -75 17 -30 41 -25 97 24 238 23 65 47 147 54 182 13 65 10 177 -4 177 -19
0 -52 -134 -60 -247 -11 -141 -32 -216 -70 -255 -34 -33 -53 -35 -81 -7 -17
17 -20 29 -16 56 6 33 5 34 -12 19 -59 -54 -92 34 -65 176 16 82 15 99 -12
299 -24 183 -88 340 -152 373 -26 13 -32 13 -50 0 -51 -36 -37 -111 58 -305
26 -53 67 -156 90 -228 l42 -130 -22 -45 c-38 -79 -94 -48 -70 38 11 39 9 50
-25 142 -21 54 -70 161 -108 237 l-71 139 -4 101 c-2 56 -8 106 -13 112 -13
13 -11 -103 3 -203 10 -75 8 -105 -8 -90 -9 10 -34 180 -34 235 0 54 13 103
28 103 5 0 16 -8 25 -18z m-8235 -249 c2 -9 -5 -11 -26 -7 -16 3 -32 2 -36 -4
-7 -12 12 -28 38 -33 10 -2 24 -11 29 -21 22 -34 -36 -62 -87 -42 -28 11 -7
23 29 17 46 -7 46 12 0 31 -27 11 -35 21 -35 40 0 13 6 27 13 30 21 9 70 2 75
-11z m222 7 c0 -5 -18 -10 -41 -10 -33 0 -40 -3 -37 -17 2 -12 14 -19 36 -21
43 -4 41 -22 -3 -22 -24 0 -35 -5 -35 -15 0 -11 11 -15 40 -15 22 0 40 -4 40
-10 0 -5 -22 -10 -50 -10 l-50 0 0 65 0 65 50 0 c28 0 50 -4 50 -10z m153 -31
l25 -42 26 42 c15 22 31 41 36 41 6 0 10 -29 10 -65 0 -51 -3 -65 -15 -65 -10
0 -15 10 -15 33 l-1 32 -17 -27 c-21 -36 -28 -35 -49 5 l-18 32 -3 -37 c-5
-63 -22 -42 -22 27 0 36 4 65 9 65 6 0 21 -19 34 -41z m247 -24 c0 -51 -3 -65
-15 -65 -12 0 -15 14 -15 65 0 51 3 65 15 65 12 0 15 -14 15 -65z m166 28 l29
-38 5 34 c3 19 11 36 18 39 9 3 12 -14 12 -62 0 -79 -12 -84 -58 -24 l-32 42
0 -42 c0 -31 -4 -42 -15 -42 -12 0 -15 14 -15 65 0 77 13 84 56 28z m274 -20
c14 -31 27 -60 28 -65 2 -4 -3 -8 -11 -8 -8 0 -17 7 -21 15 -7 20 -56 19 -71
-1 -6 -9 -17 -15 -22 -13 -15 5 42 129 59 129 7 0 24 -26 38 -57z m221 47 c21
-12 27 -64 8 -76 -8 -4 -8 -9 0 -17 15 -15 14 -27 -3 -27 -8 0 -16 7 -20 15
-3 8 -15 15 -26 15 -11 0 -20 -7 -20 -15 0 -8 -7 -15 -15 -15 -12 0 -15 14
-15 65 l0 65 36 0 c19 0 44 -5 55 -10z m159 -55 c0 -51 -3 -65 -15 -65 -12 0
-15 14 -15 65 0 51 3 65 15 65 12 0 15 -14 15 -65z m228 49 c27 -18 30 -69 5
-96 -20 -23 -80 -24 -105 -1 -10 9 -18 29 -18 45 0 57 68 88 118 52z m318 -25
l26 -42 22 38 c34 62 46 56 46 -19 0 -52 -3 -66 -15 -66 -10 0 -15 10 -15 33
l-1 32 -15 -27 c-8 -16 -18 -28 -22 -28 -4 0 -15 12 -24 28 l-17 27 -1 -32 c0
-23 -5 -33 -15 -33 -12 0 -15 14 -15 65 0 36 4 65 10 65 5 0 22 -19 36 -41z
m314 31 c0 -5 -16 -10 -35 -10 -42 0 -49 -27 -8 -32 39 -4 42 -28 4 -28 -21 0
-31 -5 -31 -15 0 -10 11 -15 35 -15 19 0 35 -4 35 -10 0 -5 -22 -10 -50 -10
l-50 0 0 65 0 65 50 0 c28 0 50 -4 50 -10z m201 0 c21 -12 27 -64 8 -76 -8 -4
-8 -9 0 -17 15 -15 14 -27 -3 -27 -8 0 -16 7 -20 15 -3 8 -15 15 -26 15 -11 0
-20 -7 -20 -15 0 -8 -7 -15 -15 -15 -12 0 -15 14 -15 65 l0 65 36 0 c19 0 44
-5 55 -10z m223 4 c28 -11 17 -26 -13 -19 -20 4 -34 1 -45 -10 -36 -36 -8 -82
44 -71 35 7 41 -11 8 -23 -29 -10 -75 5 -88 29 -31 58 30 119 94 94z m217 -51
c13 -32 26 -61 27 -65 2 -4 -3 -8 -11 -8 -8 0 -17 7 -21 15 -7 20 -56 19 -71
-1 -6 -9 -17 -15 -23 -13 -16 5 43 129 61 129 7 0 24 -26 38 -57z m237 41 c15
-10 22 -25 22 -46 0 -48 -25 -68 -82 -68 l-48 0 0 65 0 65 43 0 c23 0 53 -7
65 -16z m240 0 c29 -20 30 -74 2 -99 -43 -39 -120 -9 -120 47 0 57 68 88 118
52z m219 -1 c3 -7 -8 -10 -28 -10 -41 2 -49 -19 -10 -28 55 -12 67 -56 19 -74
-26 -9 -70 0 -75 16 -3 8 9 9 36 6 52 -7 54 9 4 34 -44 21 -50 35 -27 57 18
19 75 18 81 -1z m359 1 c18 -14 17 -15 -18 -9 -26 4 -41 1 -52 -10 -31 -32
-13 -75 31 -75 18 0 23 6 23 26 0 33 24 27 28 -8 4 -35 -40 -52 -85 -33 -48
20 -57 64 -21 102 25 27 66 30 94 7z m154 -39 c0 -54 0 -55 29 -55 17 0 33 -4
36 -10 4 -6 -13 -10 -44 -10 l-51 0 0 65 c0 51 3 65 15 65 12 0 15 -13 15 -55z
m283 23 c27 -36 16 -75 -25 -92 -41 -17 -86 -3 -99 31 -13 35 -12 41 16 69 33
33 80 30 108 -8z m227 17 c7 -8 10 -22 6 -31 -3 -8 -1 -24 5 -35 17 -32 -5
-49 -62 -49 l-49 0 0 65 0 65 44 0 c26 0 48 -6 56 -15z m214 -44 c14 -32 26
-61 26 -65 0 -13 -28 -5 -34 9 -7 20 -56 19 -71 -1 -6 -9 -16 -15 -22 -13 -13
5 45 129 62 129 7 0 24 -26 39 -59z m156 4 l0 -55 35 0 c19 0 35 -4 35 -10 0
-5 -22 -10 -50 -10 l-50 0 0 65 c0 51 3 65 15 65 12 0 15 -13 15 -55z m270 45
c0 -5 -16 -10 -35 -10 -24 0 -35 -5 -35 -15 0 -10 10 -15 30 -15 20 0 30 -5
30 -15 0 -10 -10 -15 -30 -15 -20 0 -30 -5 -30 -15 0 -10 11 -15 35 -15 19 0
35 -4 35 -10 0 -5 -22 -10 -50 -10 l-50 0 0 65 0 65 50 0 c28 0 50 -4 50 -10z
m197 -7 c3 -7 -8 -10 -28 -10 -41 2 -49 -19 -10 -28 55 -12 67 -56 19 -74 -26
-9 -70 0 -75 16 -3 8 9 9 36 6 52 -7 54 9 4 34 -44 21 -50 35 -27 57 18 19 75
18 81 -1z m-3442 -478 c0 -28 -3 -30 -35 -30 -26 0 -36 5 -38 18 -7 34 6 48
40 45 29 -3 33 -6 33 -33z m3915 -155 l0 -180 -35 0 -35 0 0 180 0 180 35 0
35 0 0 -180z m-5816 146 c48 -20 76 -61 76 -110 0 -77 -39 -108 -145 -116
l-70 -5 -3 -47 c-3 -47 -4 -48 -38 -48 l-34 0 0 170 0 170 90 0 c54 0 104 -6
124 -14z m4201 -16 c0 -25 -1 -25 -92 -28 l-93 -3 0 -39 0 -39 83 -3 c80 -3
82 -4 82 -28 0 -24 -2 -25 -82 -28 l-83 -3 0 -39 0 -39 93 -3 92 -3 3 -27 3
-28 -130 0 -131 0 0 170 0 171 128 -3 127 -3 0 -25z m305 0 l0 -30 -90 0 -90
0 0 -40 0 -40 80 0 80 0 0 -30 0 -30 -80 0 -80 0 0 -40 0 -39 93 -3 92 -3 3
-27 3 -28 -135 0 -136 0 0 163 c0 90 3 167 7 170 3 4 62 7 130 7 l123 0 0 -30z
m118 -96 c3 -137 13 -158 77 -158 64 0 74 21 77 158 l3 121 38 3 37 3 0 -113
c-1 -180 -36 -233 -156 -233 -47 0 -69 5 -91 21 -51 37 -63 76 -63 207 l0 118
38 -3 37 -3 3 -121z m352 29 c0 -125 11 -167 49 -182 15 -7 40 -9 55 -5 47 12
56 37 56 167 l0 118 38 -3 37 -3 0 -120 c-1 -95 -5 -127 -19 -153 -36 -68
-160 -93 -225 -45 -49 36 -61 76 -61 206 l0 117 35 0 35 0 0 -97z m-3252 45
c3 -22 9 -27 35 -30 27 -2 32 -7 32 -28 0 -21 -5 -26 -33 -28 l-33 -3 3 -72 3
-72 30 1 c50 1 63 -40 18 -57 -35 -13 -98 4 -113 31 -5 10 -10 53 -10 94 0 84
-5 89 -59 61 -26 -13 -30 -13 -41 0 -17 20 -79 19 -102 -2 -23 -20 -24 -85 -2
-107 27 -28 63 -31 94 -8 28 21 29 21 52 2 l23 -20 -27 -24 c-40 -35 -97 -42
-152 -18 -101 45 -105 186 -6 237 37 19 103 19 140 0 25 -13 29 -13 34 0 3 8
15 15 26 15 14 0 20 7 20 23 0 31 9 39 40 35 19 -2 26 -10 28 -30z m-1430 -48
c35 -22 65 -78 60 -114 -3 -19 -10 -21 -103 -26 l-100 -5 23 -22 c26 -27 77
-30 109 -8 18 13 22 12 38 -5 50 -55 -89 -89 -177 -44 -62 32 -79 138 -31 194
14 18 36 36 47 40 38 16 100 11 134 -10z m157 10 c4 -7 12 -7 25 0 10 5 30 10
44 10 21 0 26 -5 27 -27 0 -16 3 -22 6 -15 15 37 131 56 187 31 22 -10 23 -14
13 -36 -8 -18 -16 -23 -31 -18 -45 13 -82 15 -95 6 -23 -15 -4 -40 36 -46 86
-15 122 -50 102 -102 -19 -52 -121 -75 -197 -44 -36 15 -38 19 -18 46 12 17
17 18 40 7 37 -16 91 -15 106 3 10 12 8 16 -11 24 -13 5 -41 13 -62 16 -46 7
-77 36 -77 70 0 20 -5 25 -25 25 -48 0 -65 -31 -65 -120 l0 -80 -35 0 -35 0 0
130 0 130 29 0 c17 0 33 -5 36 -10z m410 0 c4 -7 12 -7 25 0 26 14 90 12 120
-3 35 -18 70 -74 70 -114 0 -103 -95 -165 -192 -128 -16 6 -18 0 -18 -49 l0
-56 -35 0 -35 0 0 180 0 180 29 0 c17 0 33 -5 36 -10z m432 -10 c38 -23 65
-71 61 -108 l-3 -27 -98 -3 c-92 -3 -97 -4 -87 -22 14 -27 71 -36 109 -17 27
14 31 13 47 -4 14 -15 14 -21 4 -34 -17 -21 -86 -37 -123 -29 -81 17 -117 59
-117 138 0 48 33 100 74 116 37 15 100 11 133 -10z m603 -27 c0 -27 3 -85 7
-130 l6 -83 -42 0 -41 0 0 123 c0 68 3 127 7 130 3 4 19 7 35 7 27 0 28 -2 28
-47z m119 -38 c19 -47 37 -85 40 -85 3 0 22 37 42 83 31 72 38 82 63 85 16 2
32 -1 36 -8 5 -8 14 -8 34 0 39 14 112 12 145 -4 40 -21 51 -56 51 -157 l0
-91 -42 3 c-24 2 -58 0 -75 -5 -40 -9 -99 8 -113 34 -19 35 -12 77 16 99 20
16 41 21 85 21 33 0 59 2 59 4 0 41 -47 61 -101 42 -36 -13 -40 -12 -50 5 -5
11 -13 18 -17 15 -4 -2 -27 -52 -52 -110 l-44 -106 -37 0 c-41 0 -29 -18 -115
183 l-33 77 37 0 37 0 34 -85z m635 72 c16 -11 17 -17 6 -36 -8 -15 -17 -20
-28 -16 -32 13 -77 16 -91 6 -25 -17 -3 -39 50 -50 66 -14 89 -34 89 -77 0
-63 -89 -99 -179 -72 -50 15 -57 25 -37 53 12 17 17 18 40 7 38 -17 95 -15
103 3 8 22 1 26 -53 36 -72 14 -94 32 -94 79 0 35 5 43 33 60 38 23 133 27
161 7z m231 3 c4 -7 12 -7 25 0 26 14 90 12 120 -3 35 -18 70 -74 70 -114 0
-103 -95 -165 -192 -128 -16 6 -18 0 -18 -49 l0 -56 -35 0 -35 0 0 180 0 180
29 0 c17 0 33 -5 36 -10z m414 -4 c40 -21 51 -56 51 -157 l0 -91 -42 3 c-24 2
-58 0 -75 -5 -40 -9 -99 8 -113 34 -19 35 -12 77 16 99 20 16 41 21 85 21 33
0 59 2 59 4 0 41 -47 61 -100 42 -38 -13 -40 -12 -55 11 -15 23 -15 24 17 38
43 18 122 19 157 1z m166 4 c4 -7 12 -7 25 0 25 13 67 13 72 -1 3 -9 9 -9 25
0 12 6 47 11 78 11 49 0 60 -4 86 -29 28 -29 29 -32 29 -131 l0 -102 -37 3
c-21 2 -53 0 -70 -5 -95 -23 -171 67 -108 129 20 21 34 25 85 25 54 0 60 2 60
20 0 38 -78 48 -119 16 -11 -8 -15 -8 -18 2 -7 19 -61 14 -83 -8 -17 -17 -20
-33 -20 -100 l0 -80 -35 0 -35 0 0 130 0 130 29 0 c17 0 33 -5 36 -10z m1984
-77 c20 -46 38 -83 41 -83 3 0 21 38 40 85 34 82 36 85 68 85 17 0 32 -3 32
-6 0 -18 -134 -312 -150 -328 -23 -24 -99 -32 -124 -14 -13 10 -16 21 -12 36
6 17 14 20 48 19 65 -3 68 15 20 124 -22 52 -48 111 -57 132 l-16 38 38 -3
c37 -3 38 -5 72 -85z m641 52 c74 -71 53 -181 -42 -219 -72 -29 -149 -2 -183
64 -30 58 -8 136 47 170 50 32 137 24 178 -15z m244 25 c23 -9 25 -12 14 -35
-7 -16 -17 -24 -26 -20 -41 15 -89 16 -101 1 -18 -22 -7 -33 42 -41 84 -14
116 -46 103 -101 -10 -38 -84 -68 -143 -59 -25 4 -56 11 -69 17 -20 9 -21 14
-11 35 8 18 16 23 31 18 47 -15 113 -17 121 -5 11 18 -17 36 -68 44 -85 14
-114 81 -56 130 24 21 41 26 84 26 30 0 65 -4 79 -10z m-4814 -670 l0 -180
-35 0 c-19 0 -35 5 -35 11 0 8 -5 7 -16 -2 -9 -7 -37 -13 -62 -13 -83 0 -132
52 -132 140 0 41 5 51 39 85 34 34 44 39 85 39 26 0 56 -5 67 -10 18 -10 19
-7 19 50 l0 60 35 0 35 0 0 -180z m2888 108 c3 -22 9 -27 35 -30 27 -2 32 -7
32 -28 0 -21 -5 -26 -33 -28 l-33 -3 3 -72 3 -72 30 1 c50 1 63 -40 18 -57
-35 -13 -98 4 -113 31 -5 10 -10 52 -10 94 0 70 -1 75 -22 78 -17 2 -23 10
-23 28 0 18 6 26 23 28 17 3 22 10 22 33 0 28 2 30 33 27 26 -2 33 -8 35 -30z
m3564 6 c15 -8 25 -20 22 -27 -6 -18 22 -40 76 -60 56 -21 58 -21 56 0 0 10 7
19 17 21 22 5 94 -67 119 -119 42 -87 68 -153 68 -175 0 -12 5 -26 10 -29 13
-8 13 -35 -1 -35 -15 0 -35 -22 -43 -46 -4 -15 1 -24 24 -37 17 -10 30 -25 30
-33 0 -8 5 -14 11 -14 7 0 10 12 7 30 -5 35 -3 37 12 10 16 -31 22 -107 10
-131 -14 -25 -52 -19 -87 13 l-23 21 -22 -20 c-27 -25 -68 -25 -117 0 -51 25
-71 22 -71 -10 0 -24 -9 -32 -63 -58 -34 -16 -73 -31 -87 -31 -14 -1 -35 -5
-47 -9 -18 -6 -23 -3 -23 9 0 9 -6 16 -13 16 -23 0 -55 -43 -72 -98 -16 -47
-19 -51 -30 -35 -8 10 -16 15 -19 12 -8 -8 14 -70 32 -92 8 -9 13 -20 10 -23
-9 -8 -66 70 -74 102 -4 16 -10 31 -13 34 -3 3 -17 28 -31 55 -13 28 -27 52
-31 55 -3 3 -11 15 -18 28 -8 14 -20 22 -34 21 -62 -5 -63 -5 -80 89 -38 203
-35 285 14 331 16 16 29 33 29 40 0 6 6 11 13 11 18 0 109 99 104 113 -5 15
36 47 60 47 10 0 24 9 30 19 7 11 27 22 45 24 53 7 171 -4 200 -19z m-8122
-44 c0 -6 9 -6 26 0 36 14 81 12 114 -5 25 -13 32 -13 57 0 15 8 47 15 71 15
35 0 49 -6 73 -29 28 -29 29 -32 29 -130 l0 -101 -35 0 -35 0 0 88 c0 95 -8
112 -49 112 -48 0 -61 -25 -61 -117 l0 -83 -35 0 -35 0 0 83 c0 100 -11 120
-60 115 -46 -4 -60 -33 -60 -125 l0 -73 -30 0 -30 0 0 130 0 130 30 0 c17 0
30 -4 30 -10z m615 -10 c37 -23 58 -65 53 -106 l-3 -29 -92 -3 c-51 -1 -93 -7
-93 -12 0 -15 43 -40 70 -40 14 0 36 7 48 16 22 15 24 15 37 -2 19 -26 19 -31
-7 -48 -117 -74 -264 37 -216 162 28 75 131 107 203 62z m155 10 c0 -7 6 -7
19 0 11 5 31 10 45 10 22 0 26 -4 26 -30 0 -25 -4 -30 -25 -30 -48 0 -65 -31
-65 -120 l0 -80 -35 0 -35 0 0 130 0 130 35 0 c19 0 35 -5 35 -10z m308 -10
c38 -23 41 -43 8 -58 -19 -9 -27 -8 -36 4 -17 19 -79 18 -102 -3 -23 -20 -24
-85 -2 -107 27 -28 63 -31 94 -8 28 21 29 21 52 2 l23 -20 -27 -24 c-59 -53
-177 -35 -212 33 -21 39 -20 110 0 140 42 60 138 80 202 41z m258 -14 c22 -25
24 -36 24 -127 l0 -99 -57 -1 c-128 -2 -134 -1 -159 22 -32 30 -31 73 1 104
20 21 34 25 85 25 67 0 80 16 35 46 -23 15 -29 15 -70 1 -43 -14 -46 -13 -56
4 -21 40 19 60 110 56 55 -3 67 -7 87 -31z m604 -1 c74 -71 53 -181 -42 -219
-72 -29 -149 -2 -183 64 -30 58 -8 136 47 170 50 32 137 24 178 -15z m244 25
c23 -9 25 -12 14 -35 -7 -16 -17 -24 -26 -20 -41 15 -89 16 -101 1 -18 -22 -7
-33 42 -41 84 -14 116 -46 103 -101 -10 -38 -84 -68 -143 -59 -25 4 -56 11
-69 17 -20 9 -21 14 -11 35 8 18 16 23 31 18 47 -15 113 -17 121 -5 11 18 -17
36 -68 44 -85 14 -114 81 -56 130 24 21 41 26 84 26 30 0 65 -4 79 -10z m360
-9 c38 -26 55 -57 56 -103 l0 -38 -95 0 c-53 0 -95 -4 -95 -9 0 -16 43 -41 70
-41 14 0 36 7 48 16 22 15 24 15 37 -2 19 -26 15 -36 -26 -57 -39 -21 -108
-17 -146 9 -114 74 -60 244 77 244 28 0 56 -8 74 -19z m156 9 c0 -7 6 -7 19 0
29 15 88 12 122 -5 27 -14 32 -14 51 0 13 8 43 15 71 15 40 0 53 -5 78 -29 28
-29 29 -32 29 -130 l0 -101 -35 0 -35 0 0 81 c0 95 -10 119 -50 119 -49 0 -60
-21 -60 -116 l0 -84 -35 0 -35 0 0 74 c0 41 -4 87 -10 101 -9 23 -15 26 -47
23 -49 -4 -63 -31 -63 -125 l0 -73 -35 0 -35 0 0 130 0 130 35 0 c19 0 35 -5
35 -10z m632 -28 c25 -24 31 -39 32 -74 l1 -43 -100 -5 -100 -5 29 -22 c33
-26 72 -29 103 -8 18 13 22 12 38 -5 50 -55 -94 -90 -176 -42 -63 36 -80 136
-32 192 35 42 57 50 121 47 44 -3 59 -9 84 -35z m138 28 c0 -7 6 -7 19 0 11 5
31 10 45 10 22 0 26 -4 26 -30 0 -25 -4 -30 -25 -30 -48 0 -65 -31 -65 -120
l0 -80 -35 0 -35 0 0 130 0 130 35 0 c19 0 35 -5 35 -10z m280 0 c13 -7 21 -7
25 0 3 5 19 10 36 10 l29 0 0 -135 c0 -100 -4 -144 -15 -164 -27 -53 -112 -75
-195 -51 -60 17 -66 24 -47 54 16 23 18 24 44 11 60 -32 143 -10 143 37 0 15
-3 17 -19 8 -32 -17 -103 -12 -135 9 -39 26 -55 57 -56 109 0 48 21 86 59 107
30 17 104 19 131 5z m352 -28 c25 -24 31 -39 32 -74 l1 -43 -100 -5 -100 -5
29 -22 c33 -26 72 -29 103 -8 18 13 22 12 38 -5 50 -55 -94 -90 -176 -42 -63
36 -80 136 -32 192 35 42 57 50 121 47 44 -3 59 -9 84 -35z m138 28 c0 -7 6
-7 19 0 11 5 41 10 66 10 38 0 52 -5 76 -29 28 -29 29 -32 29 -130 l0 -101
-35 0 -35 0 0 81 c0 99 -9 119 -55 119 -50 0 -65 -27 -65 -122 l0 -78 -35 0
-35 0 0 130 0 130 35 0 c19 0 35 -5 35 -10z m599 -4 c37 -20 61 -58 64 -104
l2 -37 -97 -3 c-54 -1 -98 -7 -98 -12 0 -15 43 -40 70 -40 15 0 35 7 46 15 26
20 29 19 48 -10 17 -26 17 -26 -26 -45 -54 -24 -82 -25 -135 -1 -133 61 -92
251 55 251 24 0 56 -7 71 -14z m265 4 c29 -11 32 -19 14 -43 -11 -14 -18 -15
-50 -5 -29 9 -44 8 -64 0 -39 -18 -24 -35 42 -50 68 -15 94 -35 94 -71 0 -61
-68 -99 -155 -85 -59 8 -79 24 -70 53 6 19 11 21 33 15 15 -4 47 -8 72 -8 34
-1 45 3 48 16 2 13 -9 19 -54 28 -60 13 -104 45 -104 77 0 25 28 63 54 73 29
12 109 12 140 0z m114 -2 c39 -39 -17 -100 -58 -63 -24 22 -25 38 -4 59 18 19
45 21 62 4z m0 -180 c39 -39 -17 -100 -58 -63 -24 22 -25 38 -4 59 18 19 45
21 62 4z m3277 -238 c3 -5 2 -10 -4 -10 -5 0 -13 5 -16 10 -3 6 -2 10 4 10 5
0 13 -4 16 -10z m-6510 -94 c0 -38 -35 -53 -66 -27 -19 15 -20 21 -10 40 10
17 20 21 44 19 28 -3 32 -7 32 -32z m2189 11 c9 -15 7 -22 -12 -37 -39 -32
-86 0 -68 46 8 21 66 14 80 -9z m-1884 -167 l0 -180 -35 0 c-19 0 -35 4 -35 9
0 5 -14 3 -31 -6 -20 -10 -42 -13 -66 -8 -75 14 -113 61 -113 141 0 41 5 51
39 85 34 34 44 39 85 39 26 0 56 -5 67 -10 18 -10 19 -7 19 50 l0 60 35 0 35
0 0 -180z m588 -2 l2 -178 -35 0 c-19 0 -35 4 -35 9 0 6 -16 3 -37 -5 -104
-44 -212 66 -171 174 25 66 119 104 179 72 18 -10 19 -7 19 43 0 30 3 57 7 61
4 4 21 6 38 4 l30 -3 3 -177z m-2695 148 c78 -33 122 -127 98 -208 -44 -146
-250 -170 -338 -39 -32 47 -32 135 0 182 47 70 158 100 240 65z m1005 -38 c3
-22 9 -27 35 -30 27 -2 32 -7 32 -28 0 -21 -5 -26 -33 -28 l-33 -3 3 -72 3
-72 30 1 c50 1 63 -40 18 -57 -35 -13 -98 4 -113 31 -5 10 -10 53 -10 94 l0
76 -45 0 c-70 0 -85 -21 -85 -120 l0 -80 -35 0 -35 0 0 130 0 130 35 0 c19 0
35 -5 35 -10 0 -7 6 -7 19 0 11 5 40 10 65 10 42 0 46 2 46 23 0 31 9 39 40
35 19 -2 26 -10 28 -30z m-798 -38 c0 -7 7 -7 21 1 12 6 44 9 71 7 67 -7 108
-46 115 -112 11 -90 -41 -150 -128 -150 -26 0 -54 6 -63 13 -14 12 -16 7 -16
-48 l0 -61 -35 0 -35 0 0 180 0 180 35 0 c19 0 35 -5 35 -10z m437 -10 c84
-51 84 -176 -1 -226 -64 -38 -163 -15 -200 46 -52 89 17 200 124 200 27 0 58
-8 77 -20z m535 -71 c2 -76 6 -93 22 -105 27 -19 52 -18 76 6 17 17 20 33 20
105 l0 85 35 0 35 0 0 -131 0 -131 -42 3 c-24 1 -59 -1 -79 -5 -25 -5 -47 -3
-73 8 -50 21 -66 62 -66 171 l0 85 34 0 34 0 4 -91z m308 81 c0 -6 9 -6 26 0
39 15 97 12 123 -6 36 -25 51 -75 51 -164 l0 -80 -40 0 -40 0 0 89 c0 100 -8
114 -62 109 -44 -4 -58 -34 -58 -125 l0 -73 -35 0 -35 0 0 130 0 130 35 0 c19
0 35 -4 35 -10z m310 -120 l0 -130 -35 0 -35 0 0 130 0 130 35 0 35 0 0 -130z
m539 115 c38 -19 51 -60 51 -162 l0 -85 -42 3 c-24 1 -59 -1 -79 -5 -77 -16
-144 43 -119 105 15 35 48 49 115 49 30 0 55 2 55 4 0 18 -16 39 -36 46 -21 8
-51 3 -95 -14 -10 -5 -19 1 -27 19 -11 24 -10 27 20 40 43 19 122 19 157 0z
m590 1 c37 -20 61 -58 64 -104 l2 -37 -97 -3 c-54 -1 -98 -7 -98 -12 0 -15 43
-40 70 -40 15 0 35 7 46 15 26 20 29 19 48 -10 17 -26 17 -26 -26 -45 -54 -24
-82 -25 -135 -1 -133 61 -92 251 55 251 24 0 56 -7 71 -14z m265 4 c29 -11 32
-19 14 -43 -11 -14 -18 -15 -50 -5 -29 9 -44 8 -64 0 -39 -18 -24 -35 42 -50
68 -15 94 -35 94 -71 0 -61 -68 -99 -155 -85 -59 8 -79 24 -70 53 6 19 11 21
33 15 15 -4 47 -8 72 -8 34 -1 45 3 48 16 2 13 -9 19 -54 28 -60 13 -104 45
-104 77 0 25 28 63 54 73 29 12 109 12 140 0z m236 -75 c19 -47 37 -85 40 -85
3 0 21 37 41 83 32 77 37 82 67 85 17 2 32 -1 32 -6 0 -5 -29 -76 -65 -158
-76 -175 -97 -199 -163 -191 -53 6 -68 18 -54 44 7 12 22 18 48 18 23 0 40 6
47 16 11 18 11 18 -66 197 l-36 82 37 0 37 0 35 -85z m375 75 c4 -7 12 -7 25
0 10 5 30 10 44 10 22 0 26 -4 26 -30 0 -25 -4 -30 -25 -30 -48 0 -65 -31 -65
-120 l0 -80 -35 0 -35 0 0 130 0 130 29 0 c17 0 33 -5 36 -10z m185 -120 l0
-130 -35 0 -35 0 0 130 0 130 35 0 35 0 0 -130z m238 110 c18 -11 37 -31 44
-45 l11 -24 16 32 c9 17 27 37 41 44 45 23 170 11 170 -15 0 -4 -6 -16 -12
-25 -11 -14 -18 -15 -50 -5 -29 9 -44 8 -64 0 -39 -18 -24 -35 42 -50 68 -15
94 -35 94 -71 0 -61 -68 -99 -155 -85 -59 8 -79 24 -70 53 6 19 11 21 33 15
15 -4 47 -8 72 -8 34 -1 45 3 48 16 2 13 -9 19 -54 28 -34 7 -66 21 -80 35
l-23 23 -3 -27 c-3 -26 -3 -26 -101 -29 -92 -3 -97 -4 -87 -22 14 -27 71 -36
109 -17 28 14 31 13 48 -5 17 -19 17 -21 -5 -38 -59 -48 -183 -26 -216 39 -26
48 -21 114 11 151 14 18 36 36 47 40 38 15 100 11 134 -10z m486 10 c17 -6 26
-6 26 0 0 6 16 10 35 10 l35 0 0 -132 c0 -86 -5 -142 -13 -157 -32 -63 -129
-88 -212 -56 -48 18 -52 24 -33 54 10 17 14 17 44 5 68 -28 125 -14 139 35 6
21 5 23 -11 16 -11 -5 -39 -10 -64 -13 -58 -5 -108 27 -129 82 -39 103 72 198
183 156z m343 -10 c74 -45 84 -148 20 -206 -47 -43 -101 -52 -161 -26 -28 13
-50 31 -60 51 -21 39 -20 110 0 140 42 60 138 80 201 41z m267 7 c16 -11 17
-17 6 -36 -8 -15 -17 -20 -28 -16 -32 13 -77 16 -91 6 -25 -17 -3 -39 50 -50
66 -14 89 -34 89 -77 0 -63 -89 -99 -179 -72 -50 15 -57 25 -37 53 12 17 17
18 40 7 38 -17 95 -15 103 3 8 22 1 26 -53 36 -72 14 -94 32 -94 79 0 35 5 43
33 60 38 23 133 27 161 7z m2769 -66 c3 -13 -4 -26 -21 -40 -38 -31 -55 -28
-40 7 24 55 51 70 61 33z m-543 -16 c14 5 20 -1 25 -27 4 -18 16 -50 27 -72
17 -33 18 -41 6 -53 -12 -12 -18 -11 -41 7 -15 12 -27 26 -27 32 0 5 -13 27
-30 48 -32 40 -39 66 -16 57 9 -3 17 3 21 16 6 19 8 20 12 4 3 -12 11 -16 23
-12z m281 -32 c8 -9 31 -24 52 -33 l38 -17 -29 -14 c-17 -8 -49 -13 -75 -11
-39 3 -45 6 -37 20 5 10 11 29 15 45 6 31 17 34 36 10z m345 -213 c-14 -22
-36 -40 -52 -44 -16 -4 -51 -18 -79 -31 -27 -13 -60 -26 -72 -29 -37 -11 -106
30 -157 92 -49 60 -56 75 -31 66 8 -4 22 -1 30 6 12 10 21 10 41 1 14 -6 32
-11 40 -11 17 0 203 78 222 93 14 11 32 -5 32 -30 0 -7 4 -13 8 -13 17 0 32
26 34 60 1 19 4 0 5 -44 4 -70 1 -83 -21 -116z m-151 130 c-3 -5 -15 -10 -25
-10 -10 0 -22 -4 -25 -10 -3 -5 -23 -10 -43 -10 -33 1 -35 2 -17 12 38 22 121
36 110 18z m326 -167 c24 -74 23 -153 -5 -232 -9 -25 -16 -77 -16 -122 0 -52
-4 -79 -11 -79 -7 0 -50 38 -97 83 -82 82 -84 84 -54 84 39 0 58 15 88 75 26
52 29 62 14 53 -5 -3 4 24 21 60 23 49 30 76 27 109 -4 59 6 49 33 -31z m-541
-3 c24 -22 40 -43 37 -47 -4 -4 -29 14 -55 40 -57 57 -44 63 18 7z m-1 -144
c6 -7 52 -42 102 -76 51 -36 88 -69 85 -76 -8 -20 -77 -114 -85 -114 -11 0
-131 238 -131 260 0 23 13 26 29 6z m-6184 -341 c25 -24 25 -25 25 -220 0
-195 0 -196 -25 -220 l-24 -25 -916 0 -916 0 -24 25 c-25 24 -25 25 -25 220 0
195 0 196 25 220 l24 25 916 0 916 0 24 -25z m6650 -76 c-6 -48 -10 -58 -17
-45 -13 24 0 132 14 118 6 -6 7 -34 3 -73z m1009 35 c7 -18 -10 -44 -28 -44
-15 0 -96 -125 -96 -149 0 -10 -6 -24 -14 -30 -16 -14 -46 -4 -46 14 0 18 -73
75 -96 75 -24 0 -94 -69 -94 -92 0 -26 -33 -40 -56 -23 -15 11 -17 17 -8 32 6
10 20 20 30 21 26 5 94 72 94 93 0 23 24 41 44 33 9 -3 16 -14 16 -24 0 -19
67 -70 92 -70 15 0 101 120 104 144 0 6 2 17 2 24 3 18 49 15 56 -4z m-1244
-75 c0 -11 -4 -17 -10 -14 -5 3 -10 15 -10 26 0 11 5 17 10 14 6 -3 10 -15 10
-26z m1260 -88 c5 -11 10 -77 10 -146 0 -69 -5 -135 -10 -146 -12 -22 -68 -27
-88 -7 -15 15 -17 271 -2 299 7 13 21 19 45 19 24 0 38 -6 45 -19z m-267 -64
c15 -11 17 -28 15 -127 l-3 -115 -39 -3 c-24 -2 -42 2 -47 10 -5 7 -9 59 -9
115 0 79 3 105 16 117 19 19 44 20 67 3z m132 -43 c13 -13 15 -34 13 -108 l-3
-91 -45 0 -45 0 -3 95 c-2 80 0 97 15 107 23 18 48 16 68 -3z m-251 -36 c18
-26 22 -119 6 -149 -12 -22 -68 -27 -88 -7 -18 18 -16 143 4 162 22 23 60 20
78 -6z m-74 -318 c0 -22 -4 -40 -10 -40 -5 0 -10 18 -10 40 0 22 5 40 10 40 6
0 10 -18 10 -40z m47 18 l23 -21 0 21 c0 12 5 22 10 22 6 0 10 -18 10 -40 0
-45 -13 -51 -41 -17 l-18 22 -1 -22 c0 -13 -4 -23 -10 -23 -5 0 -10 18 -10 40
0 46 5 48 37 18z m123 8 c6 -8 10 -25 8 -38 -2 -19 -10 -24 -40 -26 l-38 -3 0
40 c0 38 2 41 29 41 16 0 34 -7 41 -14z m40 -26 c0 -22 -4 -40 -10 -40 -5 0
-10 18 -10 40 0 22 5 40 10 40 6 0 10 -18 10 -40z m85 30 c4 -6 -7 -10 -24
-10 -24 0 -31 -4 -31 -19 0 -11 4 -22 9 -25 18 -12 59 13 65 38 9 38 31 32 49
-14 15 -40 11 -50 -11 -28 -10 10 -17 10 -32 0 -11 -6 -35 -12 -55 -12 -29 0
-36 4 -41 25 -4 15 -1 32 6 40 14 17 56 20 65 5z m163 -2 c8 -8 15 -8 26 1 35
29 93 -10 70 -46 -14 -22 -64 -29 -75 -11 -7 10 -11 10 -21 0 -6 -6 -25 -12
-40 -12 -26 0 -28 3 -28 40 0 37 2 40 28 40 15 0 33 -5 40 -12z m172 -3 c9
-11 10 -19 1 -28 -8 -10 -7 -17 1 -25 9 -9 8 -12 -4 -12 -9 0 -19 6 -22 13 -5
10 -7 10 -12 0 -12 -26 -24 -12 -24 27 0 35 3 40 24 40 13 0 29 -7 36 -15z
m80 5 c0 -5 -10 -11 -22 -11 l-23 -2 23 -4 c27 -5 29 -23 2 -23 -27 0 -25 -18
3 -23 16 -3 13 -5 -10 -6 -32 -1 -33 0 -33 39 0 38 2 40 30 40 17 0 30 -4 30
-10z m65 0 c3 -6 -4 -10 -17 -11 l-23 0 23 -11 c34 -17 29 -48 -8 -48 -16 0
-30 4 -30 9 0 5 9 7 20 4 11 -3 20 -1 20 5 0 5 -9 12 -20 15 -30 8 -27 47 4
47 14 0 28 -4 31 -10z m-907 -195 c-2 -1 -19 0 -40 2 -29 4 -37 10 -42 31 -4
22 2 33 37 64 l42 36 3 -65 c2 -36 2 -66 0 -68z m186 73 c16 -26 -4 -52 -43
-56 -30 -3 -31 -2 -31 38 0 40 1 41 31 38 18 -2 37 -11 43 -20z m76 12 c0 -5
-10 -11 -22 -11 l-23 -2 23 -4 c27 -5 29 -23 2 -23 -27 0 -25 -18 3 -23 16 -3
13 -5 -10 -6 -32 -1 -33 0 -33 39 0 38 2 40 30 40 17 0 30 -4 30 -10z m70 -10
c6 -11 15 -20 20 -20 5 0 12 9 15 20 11 34 25 22 25 -20 0 -22 -4 -40 -10 -40
-5 0 -10 8 -10 18 0 14 -2 14 -9 3 -8 -12 -12 -12 -25 -2 -13 11 -16 11 -16
-3 0 -9 -4 -16 -10 -16 -5 0 -10 18 -10 40 0 43 13 52 30 20z m140 10 c0 -5
-10 -11 -22 -11 l-23 -2 23 -4 c27 -5 29 -23 2 -23 -27 0 -25 -18 3 -23 16 -3
13 -5 -10 -6 -32 -1 -33 0 -33 39 0 38 2 40 30 40 17 0 30 -4 30 -10z m78 -6
c8 -15 10 -15 15 0 7 18 52 22 62 6 3 -6 -5 -10 -19 -10 -31 0 -43 -17 -25
-36 21 -20 56 -6 68 27 5 16 15 29 21 29 14 0 44 -70 34 -79 -4 -3 -9 0 -11 7
-5 14 -43 16 -43 2 0 -17 -80 -12 -86 5 -4 8 -11 15 -16 15 -6 0 -8 -7 -4 -15
7 -18 -5 -20 -23 -2 -11 10 -14 10 -18 0 -10 -27 -23 -11 -23 27 0 38 2 40 30
40 16 0 33 -7 38 -16z m243 0 c11 -14 13 -14 21 0 10 17 45 21 66 7 8 -5 12
-21 10 -37 -2 -24 -8 -30 -33 -32 -18 -2 -33 2 -41 12 -10 14 -13 15 -24 1 -7
-8 -25 -15 -41 -15 -27 0 -29 3 -29 40 0 37 2 40 29 40 16 0 34 -7 42 -16z
m-1464 -141 l81 -6 11 -61 c22 -124 35 -226 29 -232 -4 -3 -24 -8 -46 -11 -47
-6 -53 6 -45 99 6 62 6 63 -14 46 -24 -22 -33 -23 -33 -4 0 11 -22 13 -115 11
-90 -2 -115 0 -115 11 0 7 5 16 10 19 12 7 13 55 2 55 -5 0 -23 -17 -40 -39
-23 -28 -28 -41 -20 -49 7 -7 8 -15 5 -19 -4 -4 -14 3 -23 15 -8 12 -21 22
-27 22 -7 0 -6 -4 3 -10 13 -8 12 -10 -3 -10 -11 0 -34 15 -53 34 -19 19 -34
28 -34 21 0 -8 5 -17 10 -20 6 -3 10 -16 10 -28 0 -12 7 -31 15 -41 21 -28 19
-45 -9 -57 -38 -18 -76 -4 -76 27 0 14 -4 23 -9 20 -5 -3 -19 3 -32 13 -19 16
-21 21 -11 34 11 13 10 17 -4 25 -13 7 -15 17 -9 50 6 35 10 41 38 45 64 11
146 32 153 40 11 11 92 8 99 -3 4 -6 14 -4 28 6 17 12 36 14 82 9 33 -3 97 -8
142 -12z"/>
<path d="M8790 5483 c0 -15 12 -53 26 -83 15 -30 40 -107 56 -170 26 -99 31
-139 35 -289 3 -96 9 -168 13 -160 34 53 15 431 -28 569 -28 91 -52 134 -83
150 -17 9 -19 7 -19 -17z"/>
<path d="M8713 4935 c1 -22 -3 -52 -7 -67 -11 -37 8 -37 23 0 9 21 8 36 -3 67
l-14 40 1 -40z"/>
<path d="M9120 4898 c0 -2 -18 -53 -39 -114 -51 -145 -58 -187 -37 -219 9 -14
21 -25 27 -25 25 0 42 78 48 218 3 78 5 142 4 142 -2 0 -3 -1 -3 -2z"/>
<path d="M9833 4080 c-18 -11 -33 -27 -33 -35 0 -26 27 -16 54 20 31 40 25 44
-21 15z"/>
<path d="M1246 5345 c-4 -10 1 -15 14 -15 13 0 18 5 14 15 -4 8 -10 15 -14 15
-4 0 -10 -7 -14 -15z"/>
<path d="M1460 5365 c0 -20 5 -25 24 -25 27 0 40 22 23 39 -21 21 -47 13 -47
-14z"/>
<path d="M1832 5378 c-7 -7 -12 -22 -12 -34 0 -51 72 -61 78 -11 6 47 -36 75
-66 45z"/>
<path d="M2680 5365 c0 -20 5 -25 24 -25 27 0 40 22 23 39 -21 21 -47 13 -47
-14z"/>
<path d="M3126 5345 c-4 -10 1 -15 14 -15 13 0 18 5 14 15 -4 8 -10 15 -14 15
-4 0 -10 -7 -14 -15z"/>
<path d="M3340 5345 c0 -47 12 -55 54 -39 23 9 21 61 -3 74 -40 21 -51 13 -51
-35z"/>
<path d="M3582 5378 c-7 -7 -12 -22 -12 -34 0 -51 72 -61 78 -11 6 47 -36 75
-66 45z"/>
<path d="M4586 5374 c-19 -18 -20 -28 -6 -55 19 -35 80 -18 80 22 0 21 -26 49
-45 49 -7 0 -21 -7 -29 -16z"/>
<path d="M4830 5376 c0 -11 9 -16 26 -16 31 0 28 23 -4 28 -15 2 -22 -2 -22
-12z"/>
<path d="M4830 5315 c0 -12 7 -15 25 -13 14 2 26 8 26 13 0 6 -12 11 -26 13
-18 2 -25 -1 -25 -13z"/>
<path d="M5066 5355 c-9 -23 -8 -25 9 -25 17 0 19 9 6 28 -7 11 -10 10 -15 -3z"/>
<path d="M250 4795 l0 -65 49 0 c85 0 130 61 81 110 -15 15 -33 20 -75 20
l-55 0 0 -65z"/>
<path d="M572 4774 c-42 -29 -28 -44 43 -44 69 0 78 7 45 40 -24 24 -57 26
-88 4z"/>
<path d="M1277 4762 c-25 -27 -22 -87 5 -112 64 -59 153 35 102 108 -20 28
-83 31 -107 4z"/>
<path d="M1571 4771 c-34 -34 -26 -41 44 -41 67 0 74 4 53 33 -22 28 -73 32
-97 8z"/>
<path d="M2663 4683 c-7 -2 -13 -15 -13 -28 0 -47 91 -35 98 13 3 20 -1 22
-35 21 -21 0 -44 -3 -50 -6z"/>
<path d="M3297 4762 c-25 -27 -22 -87 5 -112 29 -27 64 -25 95 6 21 21 24 32
20 61 -3 19 -11 41 -18 49 -17 20 -82 18 -102 -4z"/>
<path d="M3583 4683 c-7 -2 -13 -15 -13 -28 0 -47 91 -35 98 13 3 20 -1 22
-35 21 -21 0 -44 -3 -50 -6z"/>
<path d="M4018 4679 c-25 -14 -22 -38 7 -51 19 -9 29 -8 50 6 14 9 25 25 25
36 0 16 -7 20 -32 20 -18 0 -41 -5 -50 -11z"/>
<path d="M6344 4772 c-58 -39 -27 -142 43 -142 55 0 87 95 45 133 -19 17 -68
22 -88 9z"/>
<path d="M1716 4158 c-23 -33 -20 -75 9 -103 31 -32 59 -32 90 0 29 28 32 70
9 103 -11 16 -25 22 -54 22 -29 0 -43 -6 -54 -22z"/>
<path d="M8394 3836 c-17 -6 -41 -18 -54 -27 l-25 -16 20 -38 c11 -20 31 -41
44 -46 41 -16 187 20 182 45 -1 5 8 14 21 20 31 16 29 40 -3 43 -15 1 -43 9
-64 17 -43 18 -76 19 -121 2z"/>
<path d="M8138 3754 c-15 -8 -25 -20 -23 -27 6 -16 -39 -37 -65 -30 -15 4 -20
0 -20 -15 0 -43 10 -53 48 -46 26 5 33 4 28 -5 -14 -22 96 0 132 27 34 26 38
44 22 86 -8 22 -15 26 -52 26 -24 -1 -55 -7 -70 -16z m-5 -101 c-7 -2 -19 -2
-25 0 -7 3 -2 5 12 5 14 0 19 -2 13 -5z"/>
<path d="M8680 3735 c0 -16 5 -37 10 -45 7 -12 10 -8 10 15 0 17 -5 37 -10 45
-7 12 -10 8 -10 -15z"/>
<path d="M7941 3644 c0 -11 3 -14 6 -6 3 7 2 16 -1 19 -3 4 -6 -2 -5 -13z"/>
<path d="M8720 3652 c0 -14 11 -21 26 -15 21 8 17 23 -6 23 -11 0 -20 -4 -20
-8z"/>
<path d="M732 4163 l-27 -28 38 -3 c20 -2 54 -2 75 0 l37 3 -27 28 c-15 15
-36 27 -48 27 -11 0 -33 -12 -48 -27z"/>
<path d="M1448 4079 c-25 -14 -22 -38 7 -51 19 -9 29 -8 50 6 14 9 25 25 25
36 0 16 -7 20 -32 20 -18 0 -41 -5 -50 -11z"/>
<path d="M2044 4172 c-58 -39 -27 -142 43 -142 55 0 87 95 45 133 -19 17 -68
22 -88 9z"/>
<path d="M2662 4163 l-27 -28 38 -3 c20 -2 54 -2 75 0 l37 3 -27 28 c-15 15
-36 27 -48 27 -11 0 -33 -12 -48 -27z"/>
<path d="M3430 4170 c-33 -33 -24 -40 45 -40 37 0 65 4 65 10 0 19 -40 50 -65
50 -14 0 -34 -9 -45 -20z"/>
<path d="M3887 4162 c-22 -25 -21 -75 1 -95 25 -23 85 -22 105 1 22 25 21 75
-1 95 -25 23 -85 22 -105 -1z"/>
<path d="M4200 4170 c-33 -33 -24 -40 45 -40 37 0 65 4 65 10 0 19 -40 50 -65
50 -14 0 -34 -9 -45 -20z"/>
<path d="M4962 4163 l-27 -28 38 -3 c20 -2 54 -2 75 0 l37 3 -27 28 c-15 15
-36 27 -48 27 -11 0 -33 -12 -48 -27z"/>
<path d="M2336 3558 c-23 -33 -20 -75 9 -103 31 -32 59 -32 90 0 29 28 32 70
9 103 -11 16 -25 22 -54 22 -29 0 -43 -6 -54 -22z"/>
<path d="M2928 3563 c-24 -28 -28 -50 -17 -83 18 -50 68 -65 109 -32 28 23 31
83 5 112 -23 25 -76 27 -97 3z"/>
<path d="M284 3649 c-28 -14 -54 -61 -54 -99 0 -73 65 -129 135 -116 90 17
121 149 48 205 -28 23 -92 27 -129 10z"/>
<path d="M646 3558 c-35 -50 -3 -128 53 -128 31 0 71 43 71 77 0 47 -25 73
-70 73 -29 0 -43 -6 -54 -22z"/>
<path d="M936 3558 c-35 -50 -3 -128 53 -128 31 0 71 43 71 77 0 47 -25 73
-70 73 -29 0 -43 -6 -54 -22z"/>
<path d="M2646 3475 c-29 -29 3 -61 50 -49 24 6 44 31 44 53 0 17 -77 13 -94
-4z"/>
<path d="M3232 3563 l-27 -28 38 -3 c20 -2 54 -2 75 0 l37 3 -27 28 c-15 15
-36 27 -48 27 -11 0 -33 -12 -48 -27z"/>
<path d="M4531 3571 c-34 -34 -26 -41 44 -41 67 0 74 4 53 33 -22 28 -73 32
-97 8z"/>
<path d="M5038 3568 c-16 -12 -22 -34 -19 -70 3 -49 96 -68 125 -26 36 50 7
108 -53 108 -20 0 -44 -6 -53 -12z"/>
<path d="M5346 3558 c-23 -33 -20 -83 6 -108 64 -59 153 35 102 108 -11 16
-25 22 -54 22 -29 0 -43 -6 -54 -22z"/>
<path d="M7950 3502 c0 -12 19 -26 26 -19 2 2 -2 10 -11 17 -9 8 -15 8 -15 2z"/>
<path d="M8435 3359 c-16 -5 -41 -18 -55 -29 l-25 -20 30 1 c35 0 97 28 103
47 4 14 -10 14 -53 1z"/>
<path d="M175 2765 c-25 -24 -25 -26 -25 -210 0 -184 0 -186 25 -210 l24 -25
906 0 906 0 24 25 c25 24 25 26 25 210 0 184 0 186 -25 210 l-24 25 -906 0
-906 0 -24 -25z m1260 -145 c-4 -6 1 -31 11 -55 16 -43 18 -45 58 -45 38 1 40
2 22 15 -11 8 -25 15 -32 15 -18 0 -26 30 -13 46 13 16 47 18 69 4 16 -10 8
-13 -27 -10 -33 2 -28 -19 8 -32 23 -8 29 -16 27 -32 -3 -18 -10 -21 -56 -22
-28 -1 -55 2 -58 7 -8 13 -48 11 -62 -3 -20 -20 -23 -3 -6 38 9 21 20 49 25
62 5 12 16 22 24 22 9 0 13 -5 10 -10z m-705 -20 c16 -10 8 -13 -27 -10 -33 2
-28 -19 7 -31 17 -6 30 -18 30 -27 1 -10 12 4 26 31 13 26 28 47 34 47 5 0 20
-24 34 -52 l24 -53 1 53 1 52 39 0 c48 0 60 -14 58 -65 l-2 -40 -62 -3 c-39
-2 -63 1 -63 8 0 5 -13 10 -30 10 -16 0 -30 -4 -30 -9 0 -13 -108 -13 -116 1
-5 7 1 9 19 6 43 -8 57 10 20 24 -18 7 -35 19 -38 26 -12 33 40 55 75 32z
m330 0 c0 -5 -13 -10 -30 -10 -20 0 -30 -5 -30 -15 0 -10 10 -15 31 -15 17 0
28 -4 24 -10 -3 -5 -17 -10 -31 -10 -13 0 -24 -4 -24 -10 0 -5 13 -10 29 -10
17 0 33 -4 36 -10 4 -6 -12 -10 -39 -10 l-46 0 0 55 0 55 40 0 c22 0 40 -4 40
-10z m98 -2 c15 -15 16 -58 1 -58 -8 0 -7 -5 1 -15 18 -22 4 -31 -18 -12 -23
21 -42 22 -42 2 0 -8 -4 -15 -10 -15 -5 0 -10 25 -10 55 l0 55 33 0 c18 0 38
-5 45 -12z m109 -18 c9 -16 20 -30 23 -30 3 0 14 14 23 30 26 44 37 37 37 -25
0 -30 -4 -55 -10 -55 -5 0 -10 12 -10 28 l0 27 -20 -25 -20 -25 -20 25 -20 25
0 -27 c0 -16 -4 -28 -10 -28 -5 0 -10 25 -10 55 0 62 11 69 37 25z"/>
<path d="M1405 2560 c-8 -13 -1 -24 14 -19 6 3 7 10 2 18 -6 10 -10 10 -16 1z"/>
<path d="M890 2575 c0 -8 9 -15 20 -15 11 0 20 7 20 15 0 8 -9 15 -20 15 -11
0 -20 -7 -20 -15z"/>
<path d="M786 2555 c-3 -9 0 -15 9 -15 16 0 20 16 6 24 -5 3 -11 -1 -15 -9z"/>
<path d="M890 2531 c0 -22 16 -27 40 -11 17 10 14 15 -17 24 -19 6 -23 3 -23
-13z"/>
<path d="M1100 2570 c0 -16 5 -21 23 -18 12 2 22 10 22 18 0 8 -10 16 -22 18
-18 3 -23 -2 -23 -18z"/>
<path d="M9650 2425 l0 -145 25 0 25 0 0 145 0 145 -25 0 -25 0 0 -145z"/>
<path d="M9400 2385 c0 -105 0 -106 23 -103 21 3 22 7 22 103 0 96 -1 100 -22
103 -23 3 -23 2 -23 -103z"/>
<path d="M9520 2365 c0 -84 0 -85 25 -85 25 0 25 1 25 85 0 84 0 85 -25 85
-25 0 -25 -1 -25 -85z"/>
<path d="M9270 2350 c0 -68 1 -70 25 -70 24 0 25 2 25 70 0 68 -1 70 -25 70
-24 0 -25 -2 -25 -70z"/>
<path d="M9380 2104 c0 -33 33 -30 38 4 3 17 -2 22 -17 22 -16 0 -21 -6 -21
-26z"/>
<path d="M9670 2105 c0 -28 12 -32 30 -10 14 16 6 35 -16 35 -8 0 -14 -10 -14
-25z"/>
<path d="M9750 2111 c0 -24 13 -33 35 -25 23 9 14 38 -13 42 -16 3 -22 -2 -22
-17z"/>
<path d="M9850 2120 c0 -5 7 -10 15 -10 8 0 15 5 15 10 0 6 -7 10 -15 10 -8 0
-15 -4 -15 -10z"/>
<path d="M9260 1995 c0 -27 6 -30 29 -16 17 11 7 41 -14 41 -9 0 -15 -9 -15
-25z"/>
<path d="M9630 2010 c0 -5 7 -10 15 -10 8 0 15 5 15 10 0 6 -7 10 -15 10 -8 0
-15 -4 -15 -10z"/>
<path d="M9870 1995 c0 -27 6 -30 29 -16 17 11 7 41 -14 41 -9 0 -15 -9 -15
-25z"/>
<path d="M9954 2009 c-8 -14 21 -43 35 -35 19 12 13 46 -8 46 -11 0 -23 -5
-27 -11z"/>
<path d="M6716 1012 c-3 -6 -14 -37 -25 -71 -19 -60 -19 -61 0 -61 14 0 21 9
26 30 3 17 9 30 14 30 5 0 9 -13 9 -30 0 -25 4 -30 24 -30 l23 0 -22 67 c-20
64 -36 85 -49 65z"/>
<path d="M6860 973 c0 -27 -3 -58 -6 -70 -5 -19 -2 -23 17 -23 23 0 24 2 21
70 -3 52 -7 70 -18 70 -10 0 -14 -13 -14 -47z"/>
<path d="M7027 1014 c-4 -4 -7 -36 -7 -71 l0 -64 52 3 c41 2 54 7 56 21 3 14
-4 17 -32 17 -34 0 -36 2 -36 35 0 34 1 35 41 35 28 0 39 4 37 13 -5 13 -99
23 -111 11z"/>
<path d="M7257 1014 c-4 -4 -7 -36 -7 -71 0 -57 2 -63 20 -63 19 0 21 5 18 67
-3 61 -14 84 -31 67z"/>
<path d="M7395 1008 c-10 -26 -35 -113 -35 -120 0 -5 9 -8 20 -8 14 0 20 7 20
23 0 42 17 52 24 13 5 -28 12 -36 28 -36 12 0 18 5 15 13 -2 6 -12 38 -21 70
-16 55 -40 76 -51 45z"/>
<path d="M7538 951 c-3 -68 -2 -71 20 -71 17 0 22 6 23 28 l1 27 7 -25 c6 -21
14 -26 49 -28 l43 -3 -3 68 c-2 52 -6 68 -18 68 -11 0 -16 -16 -20 -65 l-5
-65 -25 65 c-19 49 -31 66 -47 68 -20 3 -22 -2 -25 -67z"/>
<path d="M7748 950 c-3 -67 -2 -70 20 -70 20 0 22 5 22 50 0 43 3 50 20 50 25
0 39 -27 33 -67 -5 -30 -3 -33 21 -33 29 0 31 10 16 75 -11 49 -32 65 -86 65
l-42 0 -4 -70z"/>
<path d="M7950 973 c0 -27 -3 -58 -6 -70 -6 -22 -4 -23 53 -23 54 0 61 2 71
25 31 67 0 115 -73 115 l-45 0 0 -47z m85 -23 c0 -18 -6 -26 -22 -28 -20 -3
-23 1 -23 28 0 27 3 31 23 28 16 -2 22 -10 22 -28z"/>
<path d="M8158 1003 c-9 -10 -18 -42 -20 -70 l-5 -53 74 0 75 0 -7 53 c-9 63
-28 87 -70 87 -18 0 -39 -8 -47 -17z m70 -66 c3 -45 2 -47 -22 -47 -24 0 -26
4 -26 43 0 48 6 59 30 55 10 -2 16 -17 18 -51z"/>
<path d="M8435 956 l7 -65 -78 -4 c-44 -1 332 -4 834 -5 550 -1 912 2 912 7 0
16 -117 23 -331 19 l-207 -3 5 32 c4 21 0 42 -11 58 -14 22 -24 25 -71 25
l-55 0 0 -58 c0 -57 0 -57 -30 -57 -18 -1 -30 4 -30 12 0 8 -13 13 -35 13 -31
0 -35 3 -35 25 0 23 4 25 40 25 33 0 40 3 40 20 0 18 -7 20 -60 20 l-60 0 0
-54 c0 -40 -4 -55 -16 -60 -9 -3 -20 -4 -25 0 -5 3 -10 -1 -11 -8 -1 -7 -4 16
-7 52 -5 56 -9 65 -26 65 -17 0 -21 -8 -25 -55 l-5 -55 -21 55 c-17 45 -26 56
-48 58 -25 3 -26 2 -26 -52 0 -31 -4 -57 -10 -57 -43 -6 -45 -4 -48 36 -5 57
-25 75 -84 75 -35 0 -48 -4 -49 -15 -1 -8 -3 -19 -4 -25 -1 -5 -3 -26 -4 -45
-1 -31 -4 -35 -26 -33 -13 1 -27 8 -29 15 -3 7 -19 13 -36 13 -25 0 -30 4 -30
24 0 21 5 25 38 28 25 2 37 8 37 18 0 12 -13 15 -60 15 l-60 0 -3 -61 -3 -60
-30 4 -31 5 7 59 c7 55 6 60 -11 56 -14 -2 -21 -17 -28 -56 -10 -61 -21 -67
-30 -14 -11 59 -16 72 -31 72 -15 0 -20 -13 -31 -72 -9 -53 -21 -47 -31 14 -6
39 -13 54 -26 56 -17 4 -18 -2 -12 -62z m520 -6 c0 -18 -6 -26 -22 -28 -20 -3
-23 1 -23 28 0 27 3 31 23 28 16 -2 22 -10 22 -28z m570 0 c0 -16 -6 -26 -17
-28 -14 -3 -18 3 -18 28 0 25 4 31 18 28 11 -2 17 -12 17 -28z"/>
<path d="M6420 597 c-43 -22 -51 -51 -48 -179 3 -107 5 -120 26 -140 l23 -23
819 0 819 0 23 23 c22 21 23 31 23 152 0 121 -1 131 -23 152 l-23 23 -807 2
c-635 2 -812 0 -832 -10z m561 -148 c12 -32 13 -32 21 -8 5 13 14 27 21 31 18
11 367 9 367 -2 0 -6 -9 -10 -20 -10 -17 0 -20 -7 -20 -40 0 -29 -4 -40 -15
-40 -11 0 -15 11 -15 40 0 22 -4 40 -10 40 -5 0 -10 -9 -10 -21 0 -14 -10 -24
-30 -32 -16 -6 -30 -15 -30 -20 0 -7 -42 -8 -180 -8 -75 1 -90 2 -90 11 0 6
-9 10 -20 10 -11 0 -20 -4 -20 -10 0 -5 -9 -10 -19 -10 -20 0 -20 1 1 50 24
59 49 66 69 19z m486 -16 l21 -48 1 48 1 48 43 -3 42 -3 1 -47 c1 -39 -2 -48
-17 -48 -9 0 -20 6 -23 13 -5 10 -7 10 -12 0 -7 -15 -74 -18 -74 -3 0 14 -26
13 -50 -2 -29 -19 -32 -6 -10 45 28 62 50 62 77 0z"/>
<path d="M7043 445 c-10 -27 5 -44 37 -42 25 2 30 6 30 27 0 21 -5 25 -30 27
-20 1 -33 -3 -37 -12z"/>
<path d="M7140 450 c0 -5 11 -10 25 -10 14 0 25 -4 25 -10 0 -5 -11 -10 -25
-10 -14 0 -25 -4 -25 -10 0 -5 14 -10 30 -10 27 0 30 3 30 30 0 27 -3 30 -30
30 -16 0 -30 -4 -30 -10z"/>
<path d="M7240 446 c0 -9 7 -16 16 -16 9 0 14 5 12 12 -6 18 -28 21 -28 4z"/>
<path d="M7520 446 c0 -9 7 -16 16 -16 9 0 14 5 12 12 -6 18 -28 21 -28 4z"/>
<path d="M8658 603 c215 -2 569 -2 785 0 215 1 39 2 -393 2 -432 0 -608 -1
-392 -2z"/>
<path d="M263 583 c9 -2 25 -2 35 0 9 3 1 5 -18 5 -19 0 -27 -2 -17 -5z"/>
<path d="M1398 583 c7 -3 16 -2 19 1 4 3 -2 6 -13 5 -11 0 -14 -3 -6 -6z"/>
<path d="M1669 543 c-13 -16 -12 -17 4 -4 16 13 21 21 13 21 -2 0 -10 -8 -17
-17z"/>
<path d="M2530 549 c0 -5 5 -7 10 -4 6 3 10 8 10 11 0 2 -4 4 -10 4 -5 0 -10
-5 -10 -11z"/>
<path d="M2715 550 c3 -5 8 -10 11 -10 2 0 4 5 4 10 0 6 -5 10 -11 10 -5 0 -7
-4 -4 -10z"/>
<path d="M3296 547 c3 -10 9 -15 12 -12 3 3 0 11 -7 18 -10 9 -11 8 -5 -6z"/>
<path d="M4731 544 c0 -11 3 -14 6 -6 3 7 2 16 -1 19 -3 4 -6 -2 -5 -13z"/>
<path d="M5476 548 c3 -5 10 -6 15 -3 13 9 11 12 -6 12 -8 0 -12 -4 -9 -9z"/>
<path d="M3805 539 c-4 -6 -5 -12 -2 -15 2 -3 7 2 10 11 7 17 1 20 -8 4z"/>
<path d="M8214 430 c0 -69 1 -97 3 -62 2 34 2 90 0 125 -2 34 -3 6 -3 -63z"/>
<path d="M9884 430 c0 -69 1 -97 3 -62 2 34 2 90 0 125 -2 34 -3 6 -3 -63z"/>
<path d="M3172 515 c0 -16 2 -22 5 -12 2 9 2 23 0 30 -3 6 -5 -1 -5 -18z"/>
<path d="M4600 536 c0 -2 7 -7 16 -10 8 -3 12 -2 9 4 -6 10 -25 14 -25 6z"/>
<path d="M5282 515 c0 -16 2 -22 5 -12 2 9 2 23 0 30 -3 6 -5 -1 -5 -18z"/>
<path d="M600 526 c0 -2 7 -7 16 -10 8 -3 12 -2 9 4 -6 10 -25 14 -25 6z"/>
<path d="M5090 526 c0 -2 7 -7 16 -10 8 -3 12 -2 9 4 -6 10 -25 14 -25 6z"/>
<path d="M1369 508 c7 -10 23 -17 35 -17 20 1 20 2 1 6 -11 3 -27 10 -35 17
-13 10 -13 9 -1 -6z"/>
<path d="M2715 510 c-3 -5 -1 -10 4 -10 6 0 11 5 11 10 0 6 -2 10 -4 10 -3 0
-8 -4 -11 -10z"/>
<path d="M468 498 c6 -6 18 -8 28 -6 14 3 12 5 -9 10 -19 3 -25 2 -19 -4z"/>
<path d="M697 499 c7 -7 15 -10 18 -7 3 3 -2 9 -12 12 -14 6 -15 5 -6 -5z"/>
<path d="M815 500 c-16 -7 -17 -9 -3 -9 9 -1 20 4 23 9 7 11 7 11 -20 0z"/>
<path d="M918 498 c5 -5 16 -8 23 -6 8 3 3 7 -10 11 -17 4 -21 3 -13 -5z"/>
<path d="M1985 500 c-16 -7 -17 -9 -3 -9 9 -1 20 4 23 9 7 11 7 11 -20 0z"/>
<path d="M2948 498 c5 -5 16 -8 23 -6 8 3 3 7 -10 11 -17 4 -21 3 -13 -5z"/>
<path d="M3895 500 c-16 -7 -17 -9 -3 -9 9 -1 20 4 23 9 7 11 7 11 -20 0z"/>
<path d="M3958 498 c6 -6 18 -8 28 -6 14 3 12 5 -9 10 -19 3 -25 2 -19 -4z"/>
<path d="M4600 500 c-23 -7 -23 -8 -3 -9 12 -1 25 4 28 9 3 6 5 10 3 9 -2 -1
-14 -5 -28 -9z"/>
<path d="M4918 498 c6 -6 18 -8 28 -6 14 3 12 5 -9 10 -19 3 -25 2 -19 -4z"/>
<path d="M5187 499 c7 -7 15 -10 18 -7 3 3 -2 9 -12 12 -14 6 -15 5 -6 -5z"/>
<path d="M263 493 c9 -2 25 -2 35 0 9 3 1 5 -18 5 -19 0 -27 -2 -17 -5z"/>
<path d="M348 493 c7 -3 16 -2 19 1 4 3 -2 6 -13 5 -11 0 -14 -3 -6 -6z"/>
<path d="M588 493 c6 -2 18 -2 25 0 6 3 1 5 -13 5 -14 0 -19 -2 -12 -5z"/>
<path d="M1183 493 c9 -2 23 -2 30 0 6 3 -1 5 -18 5 -16 0 -22 -2 -12 -5z"/>
<path d="M1258 493 c7 -3 16 -2 19 1 4 3 -2 6 -13 5 -11 0 -14 -3 -6 -6z"/>
<path d="M1478 493 c7 -3 16 -2 19 1 4 3 -2 6 -13 5 -11 0 -14 -3 -6 -6z"/>
<path d="M1568 493 c7 -3 16 -2 19 1 4 3 -2 6 -13 5 -11 0 -14 -3 -6 -6z"/>
<path d="M1778 493 c7 -3 16 -2 19 1 4 3 -2 6 -13 5 -11 0 -14 -3 -6 -6z"/>
<path d="M1848 493 c6 -2 18 -2 25 0 6 3 1 5 -13 5 -14 0 -19 -2 -12 -5z"/>
<path d="M2188 493 c7 -3 16 -2 19 1 4 3 -2 6 -13 5 -11 0 -14 -3 -6 -6z"/>
<path d="M2318 493 c7 -3 16 -2 19 1 4 3 -2 6 -13 5 -11 0 -14 -3 -6 -6z"/>
<path d="M2608 493 c7 -3 16 -2 19 1 4 3 -2 6 -13 5 -11 0 -14 -3 -6 -6z"/>
<path d="M2778 493 c7 -3 16 -2 19 1 4 3 -2 6 -13 5 -11 0 -14 -3 -6 -6z"/>
<path d="M3138 493 c7 -3 16 -2 19 1 4 3 -2 6 -13 5 -11 0 -14 -3 -6 -6z"/>
<path d="M3418 493 c7 -3 16 -2 19 1 4 3 -2 6 -13 5 -11 0 -14 -3 -6 -6z"/>
<path d="M3538 493 c7 -3 16 -2 19 1 4 3 -2 6 -13 5 -11 0 -14 -3 -6 -6z"/>
<path d="M3718 493 c7 -3 16 -2 19 1 4 3 -2 6 -13 5 -11 0 -14 -3 -6 -6z"/>
<path d="M4148 493 c7 -3 16 -2 19 1 4 3 -2 6 -13 5 -11 0 -14 -3 -6 -6z"/>
<path d="M4328 493 c7 -3 16 -2 19 1 4 3 -2 6 -13 5 -11 0 -14 -3 -6 -6z"/>
<path d="M4438 493 c7 -3 16 -2 19 1 4 3 -2 6 -13 5 -11 0 -14 -3 -6 -6z"/>
<path d="M4848 493 c7 -3 16 -2 19 1 4 3 -2 6 -13 5 -11 0 -14 -3 -6 -6z"/>
<path d="M5008 493 c7 -3 16 -2 19 1 4 3 -2 6 -13 5 -11 0 -14 -3 -6 -6z"/>
<path d="M5078 493 c6 -2 18 -2 25 0 6 3 1 5 -13 5 -14 0 -19 -2 -12 -5z"/>
<path d="M5248 493 c7 -3 16 -2 19 1 4 3 -2 6 -13 5 -11 0 -14 -3 -6 -6z"/>
<path d="M5328 493 c7 -3 16 -2 19 1 4 3 -2 6 -13 5 -11 0 -14 -3 -6 -6z"/>
<path d="M5588 493 c7 -3 16 -2 19 1 4 3 -2 6 -13 5 -11 0 -14 -3 -6 -6z"/>
<path d="M5658 493 c6 -2 18 -2 25 0 6 3 1 5 -13 5 -14 0 -19 -2 -12 -5z"/>
<path d="M8687 467 c-3 -8 1 -14 9 -14 16 0 19 13 5 21 -5 3 -11 0 -14 -7z"/>
<path d="M8890 460 c-25 -25 -25 -32 -2 -60 14 -18 25 -21 45 -16 35 8 46 49
22 76 -23 25 -40 25 -65 0z m51 0 c31 -17 18 -70 -17 -70 -14 0 -44 27 -44 40
0 9 28 40 36 40 3 0 14 -5 25 -10z"/>
<path d="M9001 428 c1 -29 3 -45 6 -36 2 9 14 18 25 20 12 2 26 11 32 21 9 15
7 21 -8 33 -11 8 -28 14 -38 14 -15 0 -18 -8 -17 -52z m57 15 c-2 -10 -13 -19
-26 -21 -17 -3 -22 2 -22 17 0 16 6 21 26 21 19 0 25 -5 22 -17z"/>
<path d="M9127 467 c-3 -8 1 -14 9 -14 16 0 19 13 5 21 -5 3 -11 0 -14 -7z"/>
<path d="M9310 443 l-1 -38 -28 33 c-15 17 -31 32 -34 32 -4 0 -6 -21 -5 -47
1 -37 2 -40 5 -15 2 17 8 32 13 32 5 0 20 -15 34 -32 l26 -33 0 53 c0 28 -2
52 -5 52 -3 0 -5 -17 -5 -37z"/>
<path d="M9370 462 c-31 -25 -21 -69 17 -78 20 -5 31 -2 45 16 23 28 23 35 -2
60 -25 25 -32 25 -60 2z m54 -8 c9 -8 16 -19 16 -24 0 -13 -30 -40 -44 -40
-34 0 -48 52 -18 69 23 14 28 14 46 -5z"/>
<path d="M8773 425 c0 -27 2 -40 4 -27 3 15 11 22 28 22 17 0 25 -7 28 -22 2
-13 4 0 4 27 1 28 -1 42 -4 33 -3 -11 -14 -18 -28 -18 -14 0 -25 7 -28 18 -3
9 -5 -5 -4 -33z"/>
<path d="M8662 415 c-7 -15 -10 -30 -7 -33 3 -3 5 0 5 6 0 7 15 12 35 12 20 0
35 -5 35 -12 0 -6 2 -9 5 -6 12 12 -9 38 -30 38 -13 0 -25 5 -27 11 -2 6 -9
-1 -16 -16z"/>
<path d="M9102 415 c-7 -15 -10 -30 -7 -33 3 -3 5 0 5 6 0 7 15 12 35 12 20 0
35 -5 35 -12 0 -6 2 -9 5 -6 12 12 -9 38 -30 38 -13 0 -25 5 -27 11 -2 6 -9
-1 -16 -16z"/>
<path d="M1578 373 c7 -3 16 -2 19 1 4 3 -2 6 -13 5 -11 0 -14 -3 -6 -6z"/>
<path d="M1001 334 c0 -11 3 -14 6 -6 3 7 2 16 -1 19 -3 4 -6 -2 -5 -13z"/>
<path d="M762 305 c0 -16 2 -22 5 -12 2 9 2 23 0 30 -3 6 -5 -1 -5 -18z"/>
<path d="M1573 313 c9 -2 23 -2 30 0 6 3 -1 5 -18 5 -16 0 -22 -2 -12 -5z"/>
<path d="M455 290 c-16 -7 -17 -9 -3 -9 9 -1 20 4 23 9 7 11 7 11 -20 0z"/>
<path d="M945 290 c-16 -7 -17 -9 -3 -9 9 -1 20 4 23 9 7 11 7 11 -20 0z"/>
<path d="M728 283 c7 -3 16 -2 19 1 4 3 -2 6 -13 5 -11 0 -14 -3 -6 -6z"/>
<path d="M818 283 c7 -3 16 -2 19 1 4 3 -2 6 -13 5 -11 0 -14 -3 -6 -6z"/>
<path d="M1278 283 c6 -2 18 -2 25 0 6 3 1 5 -13 5 -14 0 -19 -2 -12 -5z"/>
<path d="M1448 283 c7 -3 16 -2 19 1 4 3 -2 6 -13 5 -11 0 -14 -3 -6 -6z"/>
<path d="M1928 283 c7 -3 16 -2 19 1 4 3 -2 6 -13 5 -11 0 -14 -3 -6 -6z"/>
<path d="M2128 283 c7 -3 16 -2 19 1 4 3 -2 6 -13 5 -11 0 -14 -3 -6 -6z"/>
<path d="M2218 283 c7 -3 16 -2 19 1 4 3 -2 6 -13 5 -11 0 -14 -3 -6 -6z"/>
<path d="M2458 283 c6 -2 18 -2 25 0 6 3 1 5 -13 5 -14 0 -19 -2 -12 -5z"/>
<path d="M2548 283 c7 -3 16 -2 19 1 4 3 -2 6 -13 5 -11 0 -14 -3 -6 -6z"/>
<path d="M2728 283 c7 -3 16 -2 19 1 4 3 -2 6 -13 5 -11 0 -14 -3 -6 -6z"/>
<path d="M2918 283 c7 -3 16 -2 19 1 4 3 -2 6 -13 5 -11 0 -14 -3 -6 -6z"/>
<path d="M1738 263 c106 -2 277 -2 380 0 103 1 16 2 -193 2 -209 0 -293 -1
-187 -2z"/>
<path d="M2418 263 c34 -2 88 -2 120 0 31 2 3 3 -63 3 -66 0 -92 -1 -57 -3z"/>
<path d="M2803 263 c64 -2 170 -2 235 0 64 1 11 3 -118 3 -129 0 -182 -2 -117
-3z"/>
<path d="M8658 253 c215 -2 569 -2 785 0 215 1 39 2 -393 2 -432 0 -608 -1
-392 -2z"/>
</g>
</svg>
